<?xml version="1.0" encoding="UTF-8" standalone="no"?>
<!DOCTYPE svg PUBLIC "-//W3C//DTD SVG 1.1//EN"
 "http://www.w3.org/Graphics/SVG/1.1/DTD/svg11.dtd">
<!-- Generated by graphviz version 13.1.0 (20250701.0955)
 -->
<!-- Title: interface/driver_jed1xx_interface.h Pages: 1 -->
<svg width="365pt" height="176pt"
 viewBox="0.00 0.00 365.00 176.00" xmlns="http://www.w3.org/2000/svg" xmlns:xlink="http://www.w3.org/1999/xlink">
<g id="graph0" class="graph" transform="scale(1 1) rotate(0) translate(4 172)">
<title>interface/driver_jed1xx_interface.h</title>
<!-- Node1 -->
<g id="Node000001" class="node">
<title>Node1</title>
<g id="a_Node000001"><a xlink:title="driver jed1xx interface header file">
<polygon fill="#999999" stroke="#666666" points="245.88,-168 131.62,-168 131.62,-136 245.88,-136 245.88,-168"/>
<text xml:space="preserve" text-anchor="start" x="139.62" y="-154.5" font-family="Helvetica,sans-Serif" font-size="10.00">interface/driver_jed1xx</text>
<text xml:space="preserve" text-anchor="middle" x="188.75" y="-142.5" font-family="Helvetica,sans-Serif" font-size="10.00">_interface.h</text>
</a>
</g>
</g>
<!-- Node2 -->
<g id="Node000002" class="node">
<title>Node2</title>
<g id="a_Node000002"><a xlink:href="driver__jed1xx__basic_8h.html" target="_top" xlink:title="driver jed1xx basic header file">
<polygon fill="white" stroke="#666666" points="113.5,-100 0,-100 0,-68 113.5,-68 113.5,-100"/>
<text xml:space="preserve" text-anchor="start" x="8" y="-86.5" font-family="Helvetica,sans-Serif" font-size="10.00">example/driver_jed1xx</text>
<text xml:space="preserve" text-anchor="middle" x="56.75" y="-74.5" font-family="Helvetica,sans-Serif" font-size="10.00">_basic.h</text>
</a>
</g>
</g>
<!-- Node1&#45;&gt;Node2 -->
<g id="edge1_Node000001_Node000002" class="edge">
<title>Node1&#45;&gt;Node2</title>
<g id="a_edge1_Node000001_Node000002"><a xlink:title=" ">
<path fill="none" stroke="#63b8ff" d="M147.7,-130.47C128.25,-120.75 105.43,-109.34 87.5,-100.38"/>
<polygon fill="#63b8ff" stroke="#63b8ff" points="145.94,-133.51 156.45,-134.85 149.07,-127.25 145.94,-133.51"/>
</a>
</g>
</g>
<!-- Node4 -->
<g id="Node000004" class="node">
<title>Node4</title>
<g id="a_Node000004"><a xlink:href="driver__jed1xx__interface__template_8c.html" target="_top" xlink:title="driver jed1xx interface template source file">
<polygon fill="white" stroke="#666666" points="245.88,-100 131.62,-100 131.62,-68 245.88,-68 245.88,-100"/>
<text xml:space="preserve" text-anchor="start" x="139.62" y="-86.5" font-family="Helvetica,sans-Serif" font-size="10.00">interface/driver_jed1xx</text>
<text xml:space="preserve" text-anchor="middle" x="188.75" y="-74.5" font-family="Helvetica,sans-Serif" font-size="10.00">_interface_template.c</text>
</a>
</g>
</g>
<!-- Node1&#45;&gt;Node4 -->
<g id="edge3_Node000001_Node000004" class="edge">
<title>Node1&#45;&gt;Node4</title>
<g id="a_edge3_Node000001_Node000004"><a xlink:title=" ">
<path fill="none" stroke="#63b8ff" d="M188.75,-124.31C188.75,-116.12 188.75,-107.38 188.75,-100.22"/>
<polygon fill="#63b8ff" stroke="#63b8ff" points="185.25,-124.18 188.75,-134.18 192.25,-124.18 185.25,-124.18"/>
</a>
</g>
</g>
<!-- Node5 -->
<g id="Node000005" class="node">
<title>Node5</title>
<g id="a_Node000005"><a xlink:href="driver__jed1xx__read__test_8h.html" target="_top" xlink:title="driver jed1xx read test header file">
<polygon fill="white" stroke="#666666" points="357.38,-100 264.12,-100 264.12,-68 357.38,-68 357.38,-100"/>
<text xml:space="preserve" text-anchor="start" x="272.12" y="-86.5" font-family="Helvetica,sans-Serif" font-size="10.00">test/driver_jed1xx</text>
<text xml:space="preserve" text-anchor="middle" x="310.75" y="-74.5" font-family="Helvetica,sans-Serif" font-size="10.00">_read_test.h</text>
</a>
</g>
</g>
<!-- Node1&#45;&gt;Node5 -->
<g id="edge4_Node000001_Node000005" class="edge">
<title>Node1&#45;&gt;Node5</title>
<g id="a_edge4_Node000001_Node000005"><a xlink:title=" ">
<path fill="none" stroke="#63b8ff" d="M227.44,-130.07C245.25,-120.44 265.99,-109.21 282.33,-100.38"/>
<polygon fill="#63b8ff" stroke="#63b8ff" points="225.81,-126.97 218.68,-134.81 229.15,-133.13 225.81,-126.97"/>
</a>
</g>
</g>
<!-- Node3 -->
<g id="Node000003" class="node">
<title>Node3</title>
<g id="a_Node000003"><a xlink:href="driver__jed1xx__basic_8c.html" target="_top" xlink:title="driver jed1xx basic source file">
<polygon fill="white" stroke="#666666" points="113.5,-32 0,-32 0,0 113.5,0 113.5,-32"/>
<text xml:space="preserve" text-anchor="start" x="8" y="-18.5" font-family="Helvetica,sans-Serif" font-size="10.00">example/driver_jed1xx</text>
<text xml:space="preserve" text-anchor="middle" x="56.75" y="-6.5" font-family="Helvetica,sans-Serif" font-size="10.00">_basic.c</text>
</a>
</g>
</g>
<!-- Node2&#45;&gt;Node3 -->
<g id="edge2_Node000002_Node000003" class="edge">
<title>Node2&#45;&gt;Node3</title>
<g id="a_edge2_Node000002_Node000003"><a xlink:title=" ">
<path fill="none" stroke="#63b8ff" d="M56.75,-56.31C56.75,-48.12 56.75,-39.38 56.75,-32.22"/>
<polygon fill="#63b8ff" stroke="#63b8ff" points="53.25,-56.18 56.75,-66.18 60.25,-56.18 53.25,-56.18"/>
</a>
</g>
</g>
<!-- Node6 -->
<g id="Node000006" class="node">
<title>Node6</title>
<g id="a_Node000006"><a xlink:href="driver__jed1xx__read__test_8c.html" target="_top" xlink:title="driver jed1xx read test source file">
<polygon fill="white" stroke="#666666" points="357.38,-32 264.12,-32 264.12,0 357.38,0 357.38,-32"/>
<text xml:space="preserve" text-anchor="start" x="272.12" y="-18.5" font-family="Helvetica,sans-Serif" font-size="10.00">test/driver_jed1xx</text>
<text xml:space="preserve" text-anchor="middle" x="310.75" y="-6.5" font-family="Helvetica,sans-Serif" font-size="10.00">_read_test.c</text>
</a>
</g>
</g>
<!-- Node5&#45;&gt;Node6 -->
<g id="edge5_Node000005_Node000006" class="edge">
<title>Node5&#45;&gt;Node6</title>
<g id="a_edge5_Node000005_Node000006"><a xlink:title=" ">
<path fill="none" stroke="#63b8ff" d="M310.75,-56.31C310.75,-48.12 310.75,-39.38 310.75,-32.22"/>
<polygon fill="#63b8ff" stroke="#63b8ff" points="307.25,-56.18 310.75,-66.18 314.25,-56.18 307.25,-56.18"/>
</a>
</g>
</g>
</g>
</svg>
