<?xml version="1.0" encoding="UTF-8" standalone="no"?>
<!DOCTYPE svg PUBLIC "-//W3C//DTD SVG 1.1//EN"
 "http://www.w3.org/Graphics/SVG/1.1/DTD/svg11.dtd">
<!-- Generated by graphviz version 13.1.0 (20250701.0955)
 -->
<!-- Title: jed1xx_basic_init Pages: 1 -->
<svg width="270pt" height="330pt"
 viewBox="0.00 0.00 270.00 330.00" xmlns="http://www.w3.org/2000/svg" xmlns:xlink="http://www.w3.org/1999/xlink">
<g id="graph0" class="graph" transform="scale(1 1) rotate(0) translate(4 326)">
<title>jed1xx_basic_init</title>
<!-- Node1 -->
<g id="Node000001" class="node">
<title>Node1</title>
<g id="a_Node000001"><a xlink:title="basic example init">
<polygon fill="#999999" stroke="#666666" points="91,-168 0,-168 0,-148 91,-148 91,-168"/>
<text xml:space="preserve" text-anchor="middle" x="45.5" y="-154.5" font-family="Helvetica,sans-Serif" font-size="10.00">jed1xx_basic_init</text>
</a>
</g>
</g>
<!-- Node2 -->
<g id="Node000002" class="node">
<title>Node2</title>
<g id="a_Node000002"><a xlink:href="group__jed1xx__base__driver.html#gaf07679547f06c4d0c68e25734aae8dbc" target="_top" xlink:title="initialize the chip">
<polygon fill="white" stroke="#666666" points="225.5,-322 163,-322 163,-302 225.5,-302 225.5,-322"/>
<text xml:space="preserve" text-anchor="middle" x="194.25" y="-308.5" font-family="Helvetica,sans-Serif" font-size="10.00">jed1xx_init</text>
</a>
</g>
</g>
<!-- Node1&#45;&gt;Node2 -->
<g id="edge1_Node000001_Node000002" class="edge">
<title>Node1&#45;&gt;Node2</title>
<g id="a_edge1_Node000001_Node000002"><a xlink:title=" ">
<path fill="none" stroke="#63b8ff" d="M49.66,-168.24C57.96,-193.48 82.89,-259.04 127,-293 134.2,-298.54 142.96,-302.47 151.71,-305.25"/>
<polygon fill="#63b8ff" stroke="#63b8ff" points="150.66,-308.59 161.23,-307.8 152.48,-301.83 150.66,-308.59"/>
</a>
</g>
</g>
<!-- Node3 -->
<g id="Node000003" class="node">
<title>Node3</title>
<g id="a_Node000003"><a xlink:href="group__jed1xx__interface__driver.html#ga0c3aa0d55894ae246adf464685446d6f" target="_top" xlink:title="interface print format data">
<polygon fill="white" stroke="#666666" points="253.62,-284 134.88,-284 134.88,-252 253.62,-252 253.62,-284"/>
<text xml:space="preserve" text-anchor="start" x="142.88" y="-270.5" font-family="Helvetica,sans-Serif" font-size="10.00">jed1xx_interface_debug</text>
<text xml:space="preserve" text-anchor="middle" x="194.25" y="-258.5" font-family="Helvetica,sans-Serif" font-size="10.00">_print</text>
</a>
</g>
</g>
<!-- Node1&#45;&gt;Node3 -->
<g id="edge2_Node000001_Node000003" class="edge">
<title>Node1&#45;&gt;Node3</title>
<g id="a_edge2_Node000001_Node000003"><a xlink:title=" ">
<path fill="none" stroke="#63b8ff" d="M53.79,-168.33C66.68,-185.92 95.18,-221.85 127,-243 128.8,-244.2 130.67,-245.35 132.59,-246.46"/>
<polygon fill="#63b8ff" stroke="#63b8ff" points="130.67,-249.41 141.16,-250.92 133.9,-243.2 130.67,-249.41"/>
</a>
</g>
</g>
<!-- Node4 -->
<g id="Node000004" class="node">
<title>Node4</title>
<g id="a_Node000004"><a xlink:href="group__jed1xx__interface__driver.html#ga6f3e9ddfac6f0a2cfb2ca110056b3a4d" target="_top" xlink:title="interface delay ms">
<polygon fill="white" stroke="#666666" points="261.5,-234 127,-234 127,-214 261.5,-214 261.5,-234"/>
<text xml:space="preserve" text-anchor="middle" x="194.25" y="-220.5" font-family="Helvetica,sans-Serif" font-size="10.00">jed1xx_interface_delay_ms</text>
</a>
</g>
</g>
<!-- Node1&#45;&gt;Node4 -->
<g id="edge3_Node000001_Node000004" class="edge">
<title>Node1&#45;&gt;Node4</title>
<g id="a_edge3_Node000001_Node000004"><a xlink:title=" ">
<path fill="none" stroke="#63b8ff" d="M61.63,-168.38C77.38,-178.81 103.04,-194.76 127,-205 131.27,-206.83 135.77,-208.53 140.33,-210.12"/>
<polygon fill="#63b8ff" stroke="#63b8ff" points="138.97,-213.36 149.56,-213.12 141.13,-206.7 138.97,-213.36"/>
</a>
</g>
</g>
<!-- Node5 -->
<g id="Node000005" class="node">
<title>Node5</title>
<g id="a_Node000005"><a xlink:href="group__jed1xx__interface__driver.html#ga329a2bea88ce38e350c1ea36aa24d912" target="_top" xlink:title="interface iic bus deinit">
<polygon fill="white" stroke="#666666" points="245.38,-196 143.12,-196 143.12,-164 245.38,-164 245.38,-196"/>
<text xml:space="preserve" text-anchor="start" x="151.12" y="-182.5" font-family="Helvetica,sans-Serif" font-size="10.00">jed1xx_interface_iic</text>
<text xml:space="preserve" text-anchor="middle" x="194.25" y="-170.5" font-family="Helvetica,sans-Serif" font-size="10.00">_deinit</text>
</a>
</g>
</g>
<!-- Node1&#45;&gt;Node5 -->
<g id="edge4_Node000001_Node000005" class="edge">
<title>Node1&#45;&gt;Node5</title>
<g id="a_edge4_Node000001_Node000005"><a xlink:title=" ">
<path fill="none" stroke="#63b8ff" d="M91.33,-164.72C104.04,-166.63 118.1,-168.73 131.62,-170.76"/>
<polygon fill="#63b8ff" stroke="#63b8ff" points="130.9,-174.19 141.3,-172.21 131.93,-167.27 130.9,-174.19"/>
</a>
</g>
</g>
<!-- Node6 -->
<g id="Node000006" class="node">
<title>Node6</title>
<g id="a_Node000006"><a xlink:href="group__jed1xx__interface__driver.html#ga02d4a3442dfdeb8b5024c3f06265439e" target="_top" xlink:title="interface iic bus init">
<polygon fill="white" stroke="#666666" points="254.38,-146 134.12,-146 134.12,-126 254.38,-126 254.38,-146"/>
<text xml:space="preserve" text-anchor="middle" x="194.25" y="-132.5" font-family="Helvetica,sans-Serif" font-size="10.00">jed1xx_interface_iic_init</text>
</a>
</g>
</g>
<!-- Node1&#45;&gt;Node6 -->
<g id="edge5_Node000001_Node000006" class="edge">
<title>Node1&#45;&gt;Node6</title>
<g id="a_edge5_Node000001_Node000006"><a xlink:title=" ">
<path fill="none" stroke="#63b8ff" d="M91.33,-151.28C101.27,-149.79 112.05,-148.17 122.74,-146.57"/>
<polygon fill="#63b8ff" stroke="#63b8ff" points="122.95,-150.08 132.33,-145.13 121.92,-143.15 122.95,-150.08"/>
</a>
</g>
</g>
<!-- Node7 -->
<g id="Node000007" class="node">
<title>Node7</title>
<g id="a_Node000007"><a xlink:href="group__jed1xx__interface__driver.html#gaf20709ec8c7a4b7d3e55098cdec54f81" target="_top" xlink:title="interface iic bus read">
<polygon fill="white" stroke="#666666" points="257.38,-108 131.12,-108 131.12,-88 257.38,-88 257.38,-108"/>
<text xml:space="preserve" text-anchor="middle" x="194.25" y="-94.5" font-family="Helvetica,sans-Serif" font-size="10.00">jed1xx_interface_iic_read</text>
</a>
</g>
</g>
<!-- Node1&#45;&gt;Node7 -->
<g id="edge6_Node000001_Node000007" class="edge">
<title>Node1&#45;&gt;Node7</title>
<g id="a_edge6_Node000001_Node000007"><a xlink:title=" ">
<path fill="none" stroke="#63b8ff" d="M64.58,-147.52C80.6,-138.55 104.82,-125.74 127,-117 131.63,-115.17 136.51,-113.44 141.43,-111.82"/>
<polygon fill="#63b8ff" stroke="#63b8ff" points="142.26,-115.23 150.75,-108.9 140.16,-108.55 142.26,-115.23"/>
</a>
</g>
</g>
<!-- Node8 -->
<g id="Node000008" class="node">
<title>Node8</title>
<g id="a_Node000008"><a xlink:href="group__jed1xx__interface__driver.html#ga71b44d4185fe58dd46aec918c9a591f4" target="_top" xlink:title="interface iic bus write">
<polygon fill="white" stroke="#666666" points="245.38,-70 143.12,-70 143.12,-38 245.38,-38 245.38,-70"/>
<text xml:space="preserve" text-anchor="start" x="151.12" y="-56.5" font-family="Helvetica,sans-Serif" font-size="10.00">jed1xx_interface_iic</text>
<text xml:space="preserve" text-anchor="middle" x="194.25" y="-44.5" font-family="Helvetica,sans-Serif" font-size="10.00">_write</text>
</a>
</g>
</g>
<!-- Node1&#45;&gt;Node8 -->
<g id="edge7_Node000001_Node000008" class="edge">
<title>Node1&#45;&gt;Node8</title>
<g id="a_edge7_Node000001_Node000008"><a xlink:title=" ">
<path fill="none" stroke="#63b8ff" d="M54.6,-147.64C68.03,-131.07 96.47,-98.5 127,-79 128.86,-77.81 130.8,-76.66 132.77,-75.56"/>
<polygon fill="#63b8ff" stroke="#63b8ff" points="134.27,-78.72 141.61,-71.09 131.11,-72.48 134.27,-78.72"/>
</a>
</g>
</g>
<!-- Node9 -->
<g id="Node000009" class="node">
<title>Node9</title>
<g id="a_Node000009"><a xlink:href="group__jed1xx__base__driver.html#ga475edd99257e6d8c67a111d82c7bbefb" target="_top" xlink:title="set the chip type">
<polygon fill="white" stroke="#666666" points="237.88,-20 150.62,-20 150.62,0 237.88,0 237.88,-20"/>
<text xml:space="preserve" text-anchor="middle" x="194.25" y="-6.5" font-family="Helvetica,sans-Serif" font-size="10.00">jed1xx_set_type</text>
</a>
</g>
</g>
<!-- Node1&#45;&gt;Node9 -->
<g id="edge8_Node000001_Node000009" class="edge">
<title>Node1&#45;&gt;Node9</title>
<g id="a_edge8_Node000001_Node000009"><a xlink:title=" ">
<path fill="none" stroke="#63b8ff" d="M49.92,-147.85C58.66,-123.47 84.21,-61.26 127,-29 130.98,-26 135.41,-23.48 140.05,-21.35"/>
<polygon fill="#63b8ff" stroke="#63b8ff" points="140.98,-24.74 149.02,-17.85 138.44,-18.22 140.98,-24.74"/>
</a>
</g>
</g>
</g>
</svg>
