<?xml version="1.0" encoding="UTF-8" standalone="no"?>
<!DOCTYPE svg PUBLIC "-//W3C//DTD SVG 1.1//EN"
 "http://www.w3.org/Graphics/SVG/1.1/DTD/svg11.dtd">
<!-- Generated by graphviz version 13.1.0 (20250701.0955)
 -->
<!-- Title: jed1xx driver function Pages: 1 -->
<svg width="265pt" height="290pt"
 viewBox="0.00 0.00 265.00 290.00" xmlns="http://www.w3.org/2000/svg" xmlns:xlink="http://www.w3.org/1999/xlink">
<g id="graph0" class="graph" transform="scale(1 1) rotate(0) translate(4 286)">
<title>jed1xx driver function</title>
<!-- Node3 -->
<g id="Node000003" class="node">
<title>Node3</title>
<g id="a_Node000003"><a xlink:href="group__jed1xx__base__driver.html" target="_top" xlink:title="jed1xx base driver modules">
<polygon fill="white" stroke="#666666" points="248.75,-282 153.25,-282 153.25,-250 248.75,-250 248.75,-282"/>
<text xml:space="preserve" text-anchor="start" x="161.25" y="-268.5" font-family="Helvetica,sans-Serif" font-size="10.00">jed1xx base driver</text>
<text xml:space="preserve" text-anchor="middle" x="201" y="-256.5" font-family="Helvetica,sans-Serif" font-size="10.00"> function</text>
</a>
</g>
</g>
<!-- Node1 -->
<g id="Node000001" class="node">
<title>Node1</title>
<g id="a_Node000001"><a xlink:title="jed1xx driver modules">
<polygon fill="#999999" stroke="#666666" points="109,-151 0,-151 0,-131 109,-131 109,-151"/>
<text xml:space="preserve" text-anchor="middle" x="54.5" y="-137.5" font-family="Helvetica,sans-Serif" font-size="10.00">jed1xx driver function</text>
</a>
</g>
</g>
<!-- Node1&#45;&gt;Node3 -->
<g id="edge2" class="edge">
<title>Node1&#45;&gt;Node3</title>
<path fill="none" stroke="black" d="M69.17,-160.65C85.24,-182.59 113.72,-218.01 145,-241 149.23,-244.11 153.9,-246.95 158.68,-249.52"/>
<polygon fill="black" stroke="black" points="72.06,-158.67 63.39,-152.58 66.37,-162.75 72.06,-158.67"/>
</g>
<!-- Node6 -->
<g id="Node000006" class="node">
<title>Node6</title>
<g id="a_Node000006"><a xlink:href="group__jed1xx__example__driver.html" target="_top" xlink:title="jed1xx example driver modules">
<polygon fill="white" stroke="#666666" points="256.62,-232 145.38,-232 145.38,-200 256.62,-200 256.62,-232"/>
<text xml:space="preserve" text-anchor="start" x="153.38" y="-218.5" font-family="Helvetica,sans-Serif" font-size="10.00">jed1xx example driver</text>
<text xml:space="preserve" text-anchor="middle" x="201" y="-206.5" font-family="Helvetica,sans-Serif" font-size="10.00"> function</text>
</a>
</g>
</g>
<!-- Node1&#45;&gt;Node6 -->
<g id="edge5" class="edge">
<title>Node1&#45;&gt;Node6</title>
<path fill="none" stroke="black" d="M82.7,-156.97C100.28,-167.09 123.75,-180.26 145,-191 150.71,-193.89 156.82,-196.82 162.82,-199.61"/>
<polygon fill="black" stroke="black" points="84.81,-154.15 74.41,-152.16 81.3,-160.2 84.81,-154.15"/>
</g>
<!-- Node4 -->
<g id="Node000004" class="node">
<title>Node4</title>
<g id="a_Node000004"><a xlink:href="group__jed1xx__extend__driver.html" target="_top" xlink:title="jed1xx extend driver modules">
<polygon fill="white" stroke="#666666" points="252.88,-182 149.12,-182 149.12,-150 252.88,-150 252.88,-182"/>
<text xml:space="preserve" text-anchor="start" x="157.12" y="-168.5" font-family="Helvetica,sans-Serif" font-size="10.00">jed1xx extend driver</text>
<text xml:space="preserve" text-anchor="middle" x="201" y="-156.5" font-family="Helvetica,sans-Serif" font-size="10.00"> function</text>
</a>
</g>
</g>
<!-- Node1&#45;&gt;Node4 -->
<g id="edge3" class="edge">
<title>Node1&#45;&gt;Node4</title>
<path fill="none" stroke="black" d="M120.44,-152.23C130.02,-153.89 139.78,-155.58 149.02,-157.18"/>
<polygon fill="black" stroke="black" points="121.25,-148.82 110.8,-150.57 120.05,-155.72 121.25,-148.82"/>
</g>
<!-- Node5 -->
<g id="Node000005" class="node">
<title>Node5</title>
<g id="a_Node000005"><a xlink:href="group__jed1xx__interface__driver.html" target="_top" xlink:title="jed1xx interface driver modules">
<polygon fill="white" stroke="#666666" points="257,-132 145,-132 145,-100 257,-100 257,-132"/>
<text xml:space="preserve" text-anchor="start" x="153" y="-118.5" font-family="Helvetica,sans-Serif" font-size="10.00">jed1xx interface driver</text>
<text xml:space="preserve" text-anchor="middle" x="201" y="-106.5" font-family="Helvetica,sans-Serif" font-size="10.00"> function</text>
</a>
</g>
</g>
<!-- Node1&#45;&gt;Node5 -->
<g id="edge4" class="edge">
<title>Node1&#45;&gt;Node5</title>
<path fill="none" stroke="black" d="M120.57,-129.74C128.63,-128.35 136.81,-126.93 144.7,-125.57"/>
<polygon fill="black" stroke="black" points="120.05,-126.28 110.8,-131.43 121.25,-133.18 120.05,-126.28"/>
</g>
<!-- Node2 -->
<g id="Node000002" class="node">
<title>Node2</title>
<g id="a_Node000002"><a xlink:href="group__jed1xx__link__driver.html" target="_top" xlink:title="jed1xx link driver modules">
<polygon fill="white" stroke="#666666" points="245.75,-82 156.25,-82 156.25,-50 245.75,-50 245.75,-82"/>
<text xml:space="preserve" text-anchor="start" x="164.25" y="-68.5" font-family="Helvetica,sans-Serif" font-size="10.00">jed1xx link driver</text>
<text xml:space="preserve" text-anchor="middle" x="201" y="-56.5" font-family="Helvetica,sans-Serif" font-size="10.00"> function</text>
</a>
</g>
</g>
<!-- Node1&#45;&gt;Node2 -->
<g id="edge1" class="edge">
<title>Node1&#45;&gt;Node2</title>
<path fill="none" stroke="black" d="M82.7,-125.03C100.28,-114.91 123.75,-101.74 145,-91 150.71,-88.11 156.82,-85.18 162.82,-82.39"/>
<polygon fill="black" stroke="black" points="81.3,-121.8 74.41,-129.84 84.81,-127.85 81.3,-121.8"/>
</g>
<!-- Node7 -->
<g id="Node000007" class="node">
<title>Node7</title>
<g id="a_Node000007"><a xlink:href="group__jed1xx__test__driver.html" target="_top" xlink:title="jed1xx test driver modules">
<polygon fill="white" stroke="#666666" points="246.5,-32 155.5,-32 155.5,0 246.5,0 246.5,-32"/>
<text xml:space="preserve" text-anchor="start" x="163.5" y="-18.5" font-family="Helvetica,sans-Serif" font-size="10.00">jed1xx test driver</text>
<text xml:space="preserve" text-anchor="middle" x="201" y="-6.5" font-family="Helvetica,sans-Serif" font-size="10.00"> function</text>
</a>
</g>
</g>
<!-- Node1&#45;&gt;Node7 -->
<g id="edge6" class="edge">
<title>Node1&#45;&gt;Node7</title>
<path fill="none" stroke="black" d="M69.17,-121.35C85.24,-99.41 113.72,-63.99 145,-41 149.23,-37.89 153.9,-35.05 158.68,-32.48"/>
<polygon fill="black" stroke="black" points="66.37,-119.25 63.39,-129.42 72.06,-123.33 66.37,-119.25"/>
</g>
</g>
</svg>
